<svg width="1024" height="1024" viewBox="0 0 1024 1024" fill="none" xmlns="http://www.w3.org/2000/svg">
<path d="M818.67 512C818.67 681.549 681.219 819 511.67 819C342.121 819 204.67 681.549 204.67 512C204.67 342.451 342.121 205 511.67 205C681.219 205 818.67 342.451 818.67 512ZM759.313 511.599C759.313 374.749 648.382 263.819 511.533 263.819C374.683 263.819 263.742 374.749 263.742 511.599C263.742 648.448 374.673 759.379 511.522 759.379C648.371 759.379 759.302 648.448 759.302 511.599H759.313Z" fill="white"/>
<path d="M738.506 511.514C738.506 636.819 636.922 738.403 511.617 738.403C386.312 738.403 284.729 636.819 284.729 511.514C284.729 386.209 386.312 284.625 511.617 284.625C636.922 284.625 738.506 386.209 738.506 511.514ZM732.665 511.535C732.665 389.43 633.68 290.434 511.564 290.434C389.449 290.434 290.464 389.42 290.464 511.535C290.464 633.651 389.449 732.636 511.564 732.636C633.68 732.636 732.665 633.651 732.665 511.535Z" fill="white"/>
<path d="M511.522 582.532C550.744 582.532 582.54 550.736 582.54 511.514C582.54 472.292 550.744 440.497 511.522 440.497C472.301 440.497 440.505 472.292 440.505 511.514C440.505 550.736 472.301 582.532 511.522 582.532Z" fill="white"/>
<path d="M545.964 395.028C568.707 395.028 587.144 376.591 587.144 353.848C587.144 331.104 568.707 312.667 545.964 312.667C523.22 312.667 504.783 331.104 504.783 353.848C504.783 376.591 523.22 395.028 545.964 395.028Z" fill="white"/>
<path d="M383.175 470.165C397.851 470.165 409.749 458.267 409.749 443.591C409.749 428.915 397.851 417.018 383.175 417.018C368.499 417.018 356.602 428.915 356.602 443.591C356.602 458.267 368.499 470.165 383.175 470.165Z" fill="white"/>
<path d="M566.771 676.933C581.447 676.933 593.344 665.036 593.344 650.36C593.344 635.683 581.447 623.786 566.771 623.786C552.095 623.786 540.197 635.683 540.197 650.36C540.197 665.036 552.095 676.933 566.771 676.933Z" fill="white"/>
<path d="M625.199 458.272C631.767 458.272 637.092 452.948 637.092 446.379C637.092 439.811 631.767 434.487 625.199 434.487C618.631 434.487 613.307 439.811 613.307 446.379C613.307 452.948 618.631 458.272 625.199 458.272Z" fill="white"/>
<path d="M639.816 568.981C646.385 568.981 651.709 563.656 651.709 557.088C651.709 550.52 646.385 545.196 639.816 545.196C633.248 545.196 627.924 550.52 627.924 557.088C627.924 563.656 633.248 568.981 639.816 568.981Z" fill="white"/>
<path d="M397.855 623.797C404.424 623.797 409.748 618.472 409.748 611.904C409.748 605.336 404.424 600.011 397.855 600.011C391.287 600.011 385.963 605.336 385.963 611.904C385.963 618.472 391.287 623.797 397.855 623.797Z" fill="white"/>
<path d="M521.228 732.763C508.501 732.14 495.848 730.439 483.417 727.619C471.176 724.841 459.167 721.008 447.581 716.17C436.353 711.491 425.528 705.788 415.251 699.282C404.974 692.776 395.321 685.467 386.301 677.366C377.281 669.265 368.927 660.414 361.343 650.941C353.781 641.498 347.043 631.38 341.16 620.808C335.277 610.235 330.239 599.114 326.194 587.665C322.053 575.941 318.917 563.858 316.825 551.607C314.734 539.355 313.71 526.385 313.784 513.69C313.868 500.889 315.093 488.162 317.829 475.646C320.48 463.521 324.398 451.65 329.595 440.38C334.791 429.111 340.991 418.708 348.289 408.896C355.587 399.084 363.783 390.307 372.835 382.322C381.854 374.359 391.709 367.367 402.186 361.441C412.663 355.516 423.933 350.584 435.519 346.94C447.401 343.201 459.695 340.73 472.105 339.642C484.515 338.554 497.76 338.639 510.381 340.582C522.707 342.483 534.842 345.99 546.207 351.133C557.571 356.277 567.668 362.519 577.026 370.197C586.384 377.876 594.675 386.621 601.709 396.359C608.817 406.202 614.689 416.975 618.988 428.329C623.287 439.683 626.244 452.03 627.385 464.335C628.568 477.083 628.166 490.063 625.42 502.589C622.674 515.116 618.154 526.121 611.722 536.62C605.395 546.938 597.357 556.159 588.053 563.911C578.885 571.547 568.386 577.726 557.244 581.983C546.101 586.239 533.205 588.932 520.71 589.26C508.015 589.598 495.478 587.654 483.66 582.923C472.538 578.476 462.378 571.6 453.992 563.066C445.584 554.522 438.888 544.235 434.611 533.029C430.143 521.326 428.189 508.758 428.95 496.252C429.71 483.747 433.829 471.918 440.726 461.662C447.623 451.407 456.643 443.707 467.289 438.342C477.935 432.977 490.778 430.315 503.072 431.139C515.187 431.952 526.942 436.927 535.972 445.049C544.939 453.118 551.086 463.912 553.41 475.752C555.733 487.592 553.938 500.667 546.999 511.081C540.06 521.495 529.709 527.8 517.975 529.839C506.241 531.877 493.429 528.424 484.99 519.309C476.921 510.585 473.478 497.277 477.703 485.976C481.79 475.086 492.838 468.253 504.319 468.739C507.719 468.876 507.709 463.595 504.319 463.458C490.821 462.888 478.241 470.978 473.066 483.43C467.891 495.872 471.228 510.648 479.456 520.956C487.8 531.413 500.981 536.556 514.204 535.585C527.428 534.613 539.489 528.498 547.907 518.58C556.652 508.282 560.528 495.069 559.483 481.667C558.469 468.633 553.251 456.244 544.665 446.39C536.078 436.536 524.629 429.84 512.092 427.146C499.196 424.379 485.286 425.689 472.939 430.209C460.931 434.603 450.063 442.028 441.719 451.734C433.301 461.525 427.408 473.428 424.947 486.113C422.412 499.167 423.236 512.929 426.679 525.741C430.027 538.183 436.015 549.78 444.053 559.834C452.09 569.889 461.871 577.895 473.003 583.778C484.663 589.936 497.548 593.537 510.698 594.382C523.847 595.227 537.166 593.717 549.787 590.062C562.028 586.514 573.699 580.916 584.102 573.554C594.506 566.193 603.61 557.226 611.13 546.96C618.65 536.693 624.438 525.065 628.177 512.866C632.085 500.118 633.584 486.768 633.204 473.471C632.835 460.363 630.68 447.277 626.762 434.762C622.97 422.647 617.573 411.008 610.729 400.309C603.885 389.61 595.784 379.967 586.5 371.475C577.216 362.983 566.623 355.537 555.332 349.718C543.851 343.803 531.568 339.42 518.915 336.79C506.262 334.16 492.352 333.263 478.981 333.907C465.937 334.53 452.946 336.579 440.356 340.022C427.767 343.465 416.022 348.134 404.678 354.069C393.335 360.005 382.985 366.965 373.278 375.003C363.667 382.956 354.911 391.923 347.18 401.714C339.449 411.504 332.425 422.478 326.817 433.917C321.209 445.355 316.688 457.681 313.646 470.218C310.488 483.187 308.851 496.474 308.534 509.814C308.218 523.153 309.105 536.366 311.122 549.484C313.139 562.602 316.16 574.748 320.311 586.925C324.419 598.955 329.552 610.658 335.636 621.811C341.72 632.964 348.69 643.41 356.496 653.328C364.301 663.245 372.761 672.275 382.013 680.64C391.265 689.005 401.552 696.863 412.251 703.665C423.014 710.509 434.368 716.36 446.134 721.272C457.899 726.183 470.299 730.122 482.857 732.911C495.457 735.72 508.3 737.421 521.186 738.044C524.587 738.213 524.576 732.932 521.186 732.763H521.228Z" fill="white"/>
</svg>
