<?xml version="1.0" encoding="UTF-8"?>
<svg id="Capa_2" data-name="Capa 2" xmlns="http://www.w3.org/2000/svg" viewBox="0 0 666 253.17">
  <g id="Capa_1-2" data-name="Capa 1">
    <g>
      <path d="M4.23,105.07l77.83-29.68c3.29-1.26,2.6-6.1-.91-6.39L3.04,62.63c-1.72-.14-3.04-1.57-3.04-3.3V3.31C0,1.36,1.67-.16,3.61.01l203.39,18.6c1.7.16,3.01,1.58,3.01,3.29v54.74c0,1.35-.82,2.57-2.08,3.07l-109.63,43.8c-2.77,1.11-2.77,5.04,0,6.15l109.63,43.8c1.26.5,2.08,1.72,2.08,3.07v54.74c0,1.71-1.3,3.14-3.01,3.29L3.61,253.16c-1.94.18-3.61-1.35-3.61-3.29v-56.03c0-1.72,1.32-3.16,3.04-3.3l78.11-6.37c3.51-.29,4.2-5.13.91-6.39L4.23,148.1c-1.28-.49-2.13-1.72-2.13-3.09v-36.84c0-1.37.85-2.6,2.13-3.09Z"/>
      <path d="M219.6,126.59c0-58.5,42.6-108.3,113.4-108.3s113.4,49.8,113.4,108.3-42.6,108.3-113.4,108.3-113.4-49.8-113.4-108.3ZM383.4,126.59c0-29.4-18.3-54.3-50.4-54.3s-50.4,24.9-50.4,54.3,18.3,54.3,50.4,54.3,50.4-24.9,50.4-54.3Z"/>
      <path d="M661.77,148.1l-77.83,29.69c-3.29,1.26-2.6,6.1.91,6.39l78.11,6.37c1.72.14,3.04,1.57,3.04,3.3v56.03c0,1.95-1.67,3.47-3.61,3.29l-203.39-18.6c-1.7-.16-3.01-1.58-3.01-3.29v-54.74c0-1.35.82-2.57,2.08-3.07l109.63-43.8c2.77-1.11,2.77-5.04,0-6.15l-109.63-43.8c-1.26-.5-2.08-1.72-2.08-3.07V21.9c0-1.71,1.3-3.14,3.01-3.29L662.39.01c1.94-.18,3.61,1.35,3.61,3.29v56.03c0,1.72-1.32,3.16-3.04,3.3l-78.11,6.37c-3.51.29-4.2,5.13-.91,6.39l77.83,29.68c1.28.49,2.13,1.72,2.13,3.09v36.84c0,1.37-.85,2.6-2.13,3.09Z"/>
    </g>
  </g>
</svg>