<?xml version="1.0" encoding="UTF-8"?>
<svg id="Capa_2" data-name="Capa 2" xmlns="http://www.w3.org/2000/svg" viewBox="0 0 581.34 581.34">
  <g id="Capa_1-2" data-name="Capa 1">
    <g>
      <path d="M581.34,290.67c0,160.53-130.14,290.67-290.67,290.67S0,451.2,0,290.67,130.14,0,290.67,0s290.67,130.14,290.67,290.67ZM525.14,290.29c0-129.57-105.03-234.6-234.6-234.6S55.93,160.72,55.93,290.29s105.03,234.6,234.6,234.6,234.6-105.03,234.6-234.6Z"/>
      <path d="M505.44,290.21c0,118.64-96.18,214.82-214.82,214.82s-214.82-96.18-214.82-214.82c0-118.64,96.18-214.82,214.82-214.82s214.82,96.18,214.82,214.82ZM499.91,290.23c0-115.61-93.72-209.34-209.34-209.34s-209.34,93.72-209.34,209.34,93.72,209.34,209.34,209.34,209.34-93.72,209.34-209.34Z"/>
      <circle cx="290.53" cy="290.21" r="67.24"/>
      <circle cx="323.14" cy="140.93" r="38.99"/>
      <circle cx="169.01" cy="225.9" r="25.16"/>
      <circle cx="342.84" cy="421.67" r="25.16"/>
      <circle cx="398.16" cy="228.54" r="11.26"/>
      <circle cx="412" cy="333.36" r="11.26"/>
      <circle cx="182.91" cy="385.26" r="11.26"/>
      <path d="M299.72,499.69c-12.05-.59-24.03-2.2-35.8-4.87s-22.96-6.26-33.93-10.84-20.88-9.83-30.61-15.99-18.87-13.08-27.41-20.75-16.45-16.05-23.63-25.02-13.54-18.52-19.11-28.53-10.34-20.54-14.17-31.38c-3.92-11.1-6.89-22.54-8.87-34.14-2.02-11.85-2.95-23.88-2.88-35.9.08-12.12,1.24-24.17,3.83-36.02s6.22-22.72,11.14-33.39,10.79-20.52,17.7-29.81,14.67-17.6,23.24-25.16,17.87-14.16,27.79-19.77,20.59-10.28,31.56-13.73,22.89-5.88,34.64-6.91,24.29-.95,36.24.89,23.16,5.12,33.92,9.99,20.32,10.78,29.18,18.05,16.71,15.55,23.37,24.77,12.29,19.52,16.36,30.27c4.14,10.94,6.87,22.44,7.95,34.09,1.12,12.07.74,24.36-1.86,36.22s-6.88,22.28-12.97,32.22-13.6,18.5-22.41,25.84-18.62,13.08-29.17,17.11-22.76,6.58-34.59,6.89c-12.02.32-23.89-1.52-35.08-6-10.53-4.21-20.15-10.72-28.09-18.8s-14.3-17.83-18.35-28.44-6.08-22.98-5.36-34.82,4.62-23.04,11.15-32.75,15.07-17,25.15-22.08,22.24-7.6,33.88-6.82c11.47.77,22.6,5.48,31.15,13.17,8.49,7.64,14.31,17.86,16.51,29.07s.5,23.59-6.07,33.45c-6.27,9.41-16.37,15.83-27.48,17.76-11.47,1.98-23.24-1.34-31.23-9.97-7.64-8.26-10.9-20.86-6.9-31.56,3.87-10.31,14.33-16.78,25.2-16.32,3.22.13,3.21-4.87,0-5-12.78-.54-24.69,7.12-29.59,18.91s-1.74,25.77,6.05,35.53,20.38,14.77,32.9,13.85,23.94-6.71,31.91-16.1,11.95-22.26,10.96-34.95-5.9-24.07-14.03-33.4-18.97-15.67-30.84-18.22c-12.21-2.62-25.38-1.38-37.07,2.9s-21.66,11.19-29.56,20.38-13.55,20.54-15.88,32.55-1.62,25.39,1.64,37.52,8.84,22.76,16.45,32.28,16.87,17.1,27.41,22.67c11.04,5.83,23.24,9.24,35.69,10.04,12.42.8,25.06-.63,37.01-4.09s22.64-8.66,32.49-15.63c9.84-6.96,18.47-15.46,25.59-25.18s12.6-20.73,16.14-32.28c3.7-12.07,5.12-24.71,4.76-37.3s-2.39-24.8-6.1-36.65c-3.59-11.47-8.7-22.49-15.18-32.62s-14.15-19.26-22.94-27.3c-8.87-8.11-18.82-15.09-29.51-20.6-10.87-5.6-22.5-9.75-34.48-12.24-12.42-2.57-25.15-3.34-37.81-2.73-12.35.59-24.65,2.53-36.57,5.79-11.69,3.2-23.04,7.68-33.78,13.3s-20.54,12.21-29.73,19.82c-9.1,7.53-17.39,16.02-24.71,25.29s-13.97,19.66-19.28,30.49-9.59,22.5-12.47,34.37c-2.99,12.28-4.54,24.86-4.84,37.49-.3,12.57.54,25.14,2.45,37.56,1.85,12.04,4.77,23.92,8.7,35.45s8.75,22.47,14.51,33.03,12.36,20.45,19.75,29.84,15.4,17.94,24.16,25.86c8.9,8.05,18.5,15.36,28.63,21.8,10.19,6.48,20.94,12.02,32.08,16.67s22.88,8.38,34.77,11.02,24.09,4.27,36.29,4.86c3.22.16,3.21-4.84,0-5h0Z"/>
    </g>
  </g>
</svg>