<svg width="614" height="614" viewBox="0 0 614 614" fill="none" xmlns="http://www.w3.org/2000/svg">
<g clip-path="url(#clip0_2004_356)">
<path d="M614 307C614 476.549 476.549 614 307 614C137.451 614 0 476.549 0 307C0 137.451 137.451 0 307 0C476.549 0 614 137.451 614 307ZM554.643 306.599C554.643 169.749 443.712 58.8187 306.863 58.8187C170.013 58.8187 59.0722 169.749 59.0722 306.599C59.0722 443.448 170.003 554.379 306.852 554.379C443.701 554.379 554.632 443.448 554.632 306.599H554.643Z" fill="white"/>
<path d="M533.836 306.514C533.836 431.819 432.253 533.403 306.947 533.403C181.642 533.403 80.0586 431.819 80.0586 306.514C80.0586 181.209 181.642 79.6255 306.947 79.6255C432.253 79.6255 533.836 181.209 533.836 306.514ZM527.995 306.535C527.995 184.43 429.01 85.4345 306.894 85.4345C184.779 85.4345 85.7937 184.42 85.7937 306.535C85.7937 428.651 184.779 527.636 306.894 527.636C429.01 527.636 527.995 428.651 527.995 306.535Z" fill="white"/>
<path d="M306.852 377.532C346.074 377.532 377.87 345.736 377.87 306.514C377.87 267.292 346.074 235.497 306.852 235.497C267.63 235.497 235.834 267.292 235.834 306.514C235.834 345.736 267.63 377.532 306.852 377.532Z" fill="white"/>
<path d="M341.294 190.028C364.038 190.028 382.475 171.591 382.475 148.847C382.475 126.104 364.038 107.667 341.294 107.667C318.551 107.667 300.114 126.104 300.114 148.847C300.114 171.591 318.551 190.028 341.294 190.028Z" fill="white"/>
<path d="M178.505 265.165C193.181 265.165 205.079 253.267 205.079 238.591C205.079 223.915 193.181 212.018 178.505 212.018C163.829 212.018 151.932 223.915 151.932 238.591C151.932 253.267 163.829 265.165 178.505 265.165Z" fill="white"/>
<path d="M362.101 471.933C376.777 471.933 388.674 460.036 388.674 445.36C388.674 430.683 376.777 418.786 362.101 418.786C347.425 418.786 335.527 430.683 335.527 445.36C335.527 460.036 347.425 471.933 362.101 471.933Z" fill="white"/>
<path d="M420.529 253.272C427.097 253.272 432.421 247.948 432.421 241.379C432.421 234.811 427.097 229.487 420.529 229.487C413.961 229.487 408.636 234.811 408.636 241.379C408.636 247.948 413.961 253.272 420.529 253.272Z" fill="white"/>
<path d="M435.147 363.981C441.715 363.981 447.039 358.656 447.039 352.088C447.039 345.52 441.715 340.196 435.147 340.196C428.578 340.196 423.254 345.52 423.254 352.088C423.254 358.656 428.578 363.981 435.147 363.981Z" fill="white"/>
<path d="M193.186 418.797C199.754 418.797 205.079 413.472 205.079 406.904C205.079 400.336 199.754 395.012 193.186 395.012C186.618 395.012 181.293 400.336 181.293 406.904C181.293 413.472 186.618 418.797 193.186 418.797Z" fill="white"/>
<path d="M316.559 527.763C303.832 527.14 291.179 525.439 278.747 522.619C266.506 519.841 254.497 516.007 242.911 511.17C231.684 506.491 220.858 500.788 210.581 494.282C200.305 487.776 190.651 480.467 181.632 472.366C172.612 464.265 164.257 455.414 156.674 445.94C149.112 436.498 142.373 426.38 136.49 415.808C130.607 405.235 125.569 394.114 121.524 382.665C117.384 370.941 114.247 358.858 112.156 346.607C110.065 334.355 109.04 321.385 109.114 308.69C109.199 295.889 110.424 283.162 113.159 270.646C115.81 258.521 119.729 246.65 124.925 235.38C130.122 224.111 136.321 213.707 143.62 203.896C150.918 194.084 159.114 185.307 168.165 177.322C177.185 169.358 187.039 162.367 197.516 156.441C207.994 150.516 219.263 145.584 230.85 141.94C242.732 138.201 255.026 135.73 267.436 134.642C279.846 133.554 293.09 133.638 305.712 135.582C318.037 137.483 330.173 140.989 341.537 146.133C352.902 151.277 362.999 157.519 372.357 165.197C381.714 172.876 390.005 181.621 397.04 191.359C404.148 201.202 410.02 211.975 414.319 223.329C418.617 234.683 421.575 247.03 422.715 259.334C423.898 272.083 423.497 285.063 420.751 297.589C418.005 310.116 413.484 321.121 407.052 331.619C400.726 341.938 392.688 351.159 383.383 358.911C374.215 366.547 363.717 372.726 352.574 376.982C341.432 381.239 328.536 383.932 316.041 384.259C303.346 384.597 290.809 382.654 278.99 377.922C267.869 373.476 257.708 366.6 249.322 358.066C240.915 349.522 234.219 339.234 229.941 328.028C225.474 316.326 223.52 303.757 224.28 291.252C225.041 278.747 229.16 266.918 236.057 256.662C242.953 246.407 251.973 238.707 262.619 233.342C273.266 227.976 286.109 225.315 298.403 226.139C310.517 226.952 322.273 231.927 331.303 240.049C340.27 248.118 346.417 258.912 348.74 270.752C351.064 282.592 349.268 295.667 342.329 306.081C335.39 316.495 325.04 322.8 313.306 324.839C301.571 326.877 288.76 323.423 280.321 314.309C272.252 305.585 268.809 292.277 273.033 280.976C277.121 270.086 288.168 263.253 299.649 263.739C303.05 263.876 303.039 258.595 299.649 258.458C286.151 257.887 273.572 265.978 268.397 278.43C263.221 290.872 266.559 305.648 274.787 315.956C283.13 326.412 296.312 331.556 309.535 330.584C322.758 329.613 334.82 323.497 343.238 313.58C351.983 303.282 355.859 290.069 354.813 276.666C353.8 263.633 348.582 251.244 339.995 241.39C331.408 231.536 319.959 224.84 307.423 222.146C294.527 219.379 280.617 220.689 268.27 225.209C256.261 229.603 245.393 237.028 237.049 246.734C228.632 256.525 222.738 268.428 220.277 281.113C217.742 294.167 218.566 307.929 222.009 320.741C225.357 333.183 231.346 344.779 239.383 354.834C247.421 364.889 257.201 372.895 268.333 378.778C279.994 384.935 292.879 388.537 306.028 389.382C319.178 390.227 332.496 388.717 345.118 385.062C357.359 381.513 369.03 375.916 379.433 368.554C389.836 361.193 398.941 352.226 406.461 341.959C413.981 331.693 419.769 320.065 423.507 307.866C427.415 295.118 428.915 281.768 428.535 268.47C428.165 255.363 426.011 242.277 422.092 229.761C418.3 217.647 412.903 206.008 406.059 195.309C399.215 184.61 391.114 174.967 381.831 166.475C372.547 157.983 361.953 150.537 350.663 144.718C339.182 138.803 326.899 134.42 314.246 131.79C301.593 129.16 287.683 128.262 274.311 128.907C261.268 129.53 248.277 131.579 235.687 135.022C223.097 138.465 211.352 143.133 200.009 149.069C188.666 155.005 178.315 161.965 168.609 170.003C158.998 177.956 150.242 186.923 142.511 196.714C134.779 206.504 127.756 217.478 122.147 228.916C116.539 240.355 112.019 252.681 108.977 265.217C105.819 278.187 104.182 291.474 103.865 304.814C103.548 318.153 104.435 331.366 106.453 344.484C108.47 357.601 111.491 369.748 115.641 381.925C119.75 393.955 124.883 405.658 130.967 416.811C137.05 427.964 144.021 438.41 151.826 448.327C159.631 458.245 168.091 467.275 177.343 475.64C186.596 484.005 196.883 491.863 207.582 498.665C218.344 505.509 229.698 511.36 241.464 516.271C253.23 521.183 265.63 525.122 278.188 527.911C290.788 530.72 303.631 532.42 316.516 533.044C319.917 533.213 319.907 527.932 316.516 527.763H316.559Z" fill="white"/>
</g>
<defs>
<clipPath id="clip0_2004_356">
<rect width="614" height="614" fill="white"/>
</clipPath>
</defs>
</svg>
